<svg xmlns="http://www.w3.org/2000/svg" viewBox="0 0 128 128" width="128" height="128">
  <!-- Background Box -->
  <rect x="14" y="14" width="100" height="100" rx="24" fill="#BBDC12" />
  
  <!-- Storage Database Disks -->
  <path d="M64 34 C42 34 32 40 32 46 C32 52 42 58 64 58 C86 58 96 52 96 46 C96 40 86 34 64 34 Z" fill="#8ECA3C" />
  <path d="M32 46 V62 C32 68 42 74 64 74 C86 74 96 68 96 62 V46 C96 52 86 58 64 58 C42 58 32 52 32 46 Z" fill="#499A13" />
  <path d="M32 62 V78 C32 84 42 90 64 90 C86 90 96 84 96 78 V62 C96 68 86 74 64 74 C42 74 32 68 32 62 Z" fill="#276F27" />

  <!-- Magnifying Glass -->
  <circle cx="82" cy="82" r="16" fill="none" stroke="#ffffff" stroke-width="8" />
  <line x1="93" y1="93" x2="110" y2="110" stroke="#ffffff" stroke-width="10" stroke-linecap="round" />
  <circle cx="82" cy="82" r="10" fill="#BBDC12" opacity="0.4" />
</svg>
